<svg xmlns="http://www.w3.org/2000/svg" width="512" height="512" data-name="Layer 3" viewBox="0 0 64 64"><path d="M4 25h8a3 3 0 0 0 3-3V4a3 3 0 0 0-3-3H4a3 3 0 0 0-3 3v18a3 3 0 0 0 3 3Zm3-2V3h2v20Zm6-19v18a1 1 0 0 1-1 1h-1V3h1a1 1 0 0 1 1 1ZM3 4a1 1 0 0 1 1-1h1v20H4a1 1 0 0 1-1-1ZM4 63h8a3 3 0 0 0 3-3V42a3 3 0 0 0-3-3H4a3 3 0 0 0-3 3v18a3 3 0 0 0 3 3Zm3-2V41h2v20Zm6-19v18a1 1 0 0 1-1 1h-1V41h1a1 1 0 0 1 1 1ZM3 42a1 1 0 0 1 1-1h1v20H4a1 1 0 0 1-1-1ZM60 39h-8a3 3 0 0 0-3 3v18a3 3 0 0 0 3 3h8a3 3 0 0 0 3-3V42a3 3 0 0 0-3-3Zm-3 2v20h-2V41Zm-6 19V42a1 1 0 0 1 1-1h1v20h-1a1 1 0 0 1-1-1Zm10 0a1 1 0 0 1-1 1h-1V41h1a1 1 0 0 1 1 1ZM60 1h-8a3 3 0 0 0-3 3v18a3 3 0 0 0 3 3h8a3 3 0 0 0 3-3V4a3 3 0 0 0-3-3Zm-3 2v20h-2V3Zm-6 19V4a1 1 0 0 1 1-1h1v20h-1a1 1 0 0 1-1-1Zm10 0a1 1 0 0 1-1 1h-1V3h1a1 1 0 0 1 1 1ZM28 14a1 1 0 0 0 .814-1.581l-5-7a1.037 1.037 0 0 0-1.628 0l-5 7A1 1 0 0 0 18 14h2v10a1 1 0 0 0 .2.6l8.175 10.9L20.2 46.4a1 1 0 0 0-.2.6v11a1 1 0 0 0 1 1h4a1 1 0 0 0 1-1v-9.667l6-8 6 8V58a1 1 0 0 0 1 1h4a1 1 0 0 0 1-1V47a1 1 0 0 0-.2-.6l-8.175-10.9L43.8 24.6a1 1 0 0 0 .2-.6V14h2a1 1 0 0 0 .814-1.581l-5-7a1.037 1.037 0 0 0-1.628 0l-5 7A1 1 0 0 0 36 14h2v8.666l-6 8-6-8V14Zm-3.8 33.4a1 1 0 0 0-.2.6v9h-2v-9.667l7.625-10.167 1.125 1.5Zm15.6-23.8a1 1 0 0 0 .2-.6V13a1 1 0 0 0-1-1h-1.057L41 7.721 44.057 12H43a1 1 0 0 0-1 1v10.667l-7.625 10.167-1.125-1.5Zm-15.6 0 7 9.336L42 47.333V57h-2v-9a1 1 0 0 0-.2-.6L22 23.667V13a1 1 0 0 0-1-1h-1.057L23 7.721 26.057 12H25a1 1 0 0 0-1 1v10a1 1 0 0 0 .2.6Z"/></svg>