<svg xmlns="http://www.w3.org/2000/svg" width="512pt" height="512pt" viewBox="0 -94 512.018 512"><path d="M230.414 76.809a25.548 25.548 0 0 0-24.336 18.066L77.344 39.687c-22.121-9.496-47.778-4.785-65.082 11.95L7.285 56.44a23.82 23.82 0 0 0-7.27 17.211 24.223 24.223 0 0 0 12.176 20.914 24.373 24.373 0 0 0 29.27-4.472l1.195-1.192a8.525 8.525 0 0 1 6.832-2.507 8.529 8.529 0 0 1 6.285 3.675l106.23 155.836a42.62 42.62 0 0 0 35.25 18.637h186.763a25.76 25.76 0 0 0 19.226-8.629l102.485-113.758a25.598 25.598 0 0 0 4.64-25.847L484.77 48.043a25.45 25.45 0 0 0-15.07-15.035 25.786 25.786 0 0 0-20.77 1.34l-100.098 42.46H315.75V51.208c14.137 0 25.598-11.46 25.598-25.598 0-14.14-11.461-25.601-25.598-25.601h-51.203c-14.137 0-25.598 11.46-25.598 25.601 0 14.137 11.461 25.598 25.598 25.598v25.602zm120.152 17.066c1.141 0 2.274-.227 3.325-.672l102.058-43.266c.266-.12.531-.238.785-.374a8.503 8.503 0 0 1 7.051-.524 8.5 8.5 0 0 1 5 4.996l25.602 68.266a8.53 8.53 0 0 1-1.426 8.531L390.516 244.539a8.595 8.595 0 0 1-6.5 2.938H197.254a25.606 25.606 0 0 1-21.152-11.188L69.844 80.418a25.6 25.6 0 0 0-39.254-3.582l-1.195 1.191a7.44 7.44 0 0 1-8.696 1.707 7.125 7.125 0 0 1-3.617-6.082 6.889 6.889 0 0 1 2.09-4.957l4.95-4.78c12.382-11.935 30.706-15.298 46.515-8.532l139.351 59.73c1.117.239 2.239.469 3.36.692a8.758 8.758 0 0 0 3.234-.657 69.948 69.948 0 0 0 2.723-1.808 8.35 8.35 0 0 0 1.535-2.219c.094-.18.258-.297.332-.484.2-.598.328-1.211.387-1.836.148-.492.257-1 .324-1.512v-4.879a8.533 8.533 0 0 1 8.531-8.535zm-94.55-68.266a8.533 8.533 0 0 1 8.53-8.535h51.204c4.71 0 8.531 3.82 8.531 8.535 0 4.711-3.82 8.532-8.531 8.532h-51.203a8.532 8.532 0 0 1-8.531-8.532zm25.597 25.598h17.07v25.602h-17.07zm0 0"/><path d="M383.684 214.29a12.713 12.713 0 0 0 14.097-3.364l73.684-81.492a12.807 12.807 0 0 0 2.492-13.082l-12.664-33.844a12.803 12.803 0 0 0-16.691-7.406l-61.024 24.355a12.752 12.752 0 0 0-8.098 11.902v90.985a12.72 12.72 0 0 0 8.204 11.945zm8.863-100.036 54.289-21.676 10.242 27.309-64.531 71.379zM59.75 324.277c15.95.36 31.355-5.816 42.637-17.097s17.457-26.688 17.093-42.637c0-27.836-33.808-72.934-46.84-87.973a17.575 17.575 0 0 0-25.777 0C33.824 191.61.016 236.707.016 264.543a58.418 58.418 0 0 0 59.734 59.734zm0-136.535c17.203 19.856 42.664 58.028 42.664 76.801a41.257 41.257 0 0 1-12.062 30.602 41.257 41.257 0 0 1-30.602 12.062 41.266 41.266 0 0 1-42.668-42.664c0-18.773 25.465-56.934 42.668-76.8zM256.016 110.941h-8.536a8.533 8.533 0 0 0-8.53 8.536c0 4.71 3.82 8.53 8.53 8.53h8.536c4.71 0 8.53-3.82 8.53-8.53a8.533 8.533 0 0 0-8.53-8.536zM281.613 119.477c0 4.71 3.824 8.53 8.535 8.53h34.133a8.533 8.533 0 1 0 0-17.066h-34.133a8.536 8.536 0 0 0-8.535 8.536zm0 0"/><path d="M48.52 289.707a8.535 8.535 0 0 0 8.367-1.719 8.549 8.549 0 0 0 2.699-8.105 8.551 8.551 0 0 0-5.676-6.39c-6.484-2.157-7.492-5.052-7.824-5.973a21.895 21.895 0 0 1 3.71-15.36 8.534 8.534 0 1 0-14.214-9.445A38.16 38.16 0 0 0 29.934 273a27.11 27.11 0 0 0 18.586 16.707zm0 0"/></svg>