<svg xmlns="http://www.w3.org/2000/svg" xml:space="preserve" width="512" height="512" style="enable-background:new 0 0 512.002 512.002" viewBox="0 0 512.002 512.002"><path d="M330.519 99.733C406.891 129.548 461 203.832 461 290.76c0 11.328-.934 22.437-2.701 33.266 25.792 11.861 43.702 37.924 43.702 68.173 0 41.421-33.579 75-75 75-16.806 0-32.321-5.528-44.826-14.865-34.786 27.207-78.587 43.425-126.175 43.425-47.588 0-91.385-16.219-126.175-43.425-12.505 9.336-28.02 14.865-44.826 14.865-41.421 0-75-33.579-75-75 0-30.249 17.91-56.312 43.702-68.173A206.425 206.425 0 0 1 51 290.76c0-86.928 54.109-161.212 130.481-191.027a75.827 75.827 0 0 1-.481-8.491c0-41.421 33.579-75 75-75s75 33.579 75 75a75.342 75.342 0 0 1-.481 8.491z" style="fill-rule:evenodd;clip-rule:evenodd;fill:none;stroke:#000;stroke-width:20.0001;stroke-linecap:round;stroke-linejoin:round;stroke-miterlimit:22.9256"/><circle cx="256.001" cy="91.242" r="20" style="fill-rule:evenodd;clip-rule:evenodd;fill:none;stroke:#000;stroke-width:20.0001;stroke-linecap:round;stroke-linejoin:round;stroke-miterlimit:22.9256" transform="rotate(-13.286 255.946 91.23)"/><circle cx="427.002" cy="392.199" r="20" style="fill-rule:evenodd;clip-rule:evenodd;fill:none;stroke:#000;stroke-width:20.0001;stroke-linecap:round;stroke-linejoin:round;stroke-miterlimit:22.9256"/><circle cx="85" cy="392.199" r="20" style="fill-rule:evenodd;clip-rule:evenodd;fill:none;stroke:#000;stroke-width:20.0001;stroke-linecap:round;stroke-linejoin:round;stroke-miterlimit:22.9256"/><circle cx="256.001" cy="290.76" r="60" style="fill-rule:evenodd;clip-rule:evenodd;fill:none;stroke:#000;stroke-width:20.0001;stroke-linecap:round;stroke-linejoin:round;stroke-miterlimit:22.9256"/><circle cx="256.001" cy="290.76" r="125" style="fill-rule:evenodd;clip-rule:evenodd;fill:none;stroke:#000;stroke-width:20.0001;stroke-linecap:round;stroke-linejoin:round;stroke-miterlimit:22.9256" transform="rotate(-45.001 255.999 290.765)"/></svg>