<svg xmlns="http://www.w3.org/2000/svg" width="32" height="32" viewBox="0 0 8.467 8.467"><path fill-rule="evenodd" d="M4.762 1.456v.47L2.336 4.11a.661.661 0 0 0-.22.492V7.54c0 .218.18.397.398.397h3.44c.217 0 .396-.18.396-.397V1.456h-.265V7.54a.13.13 0 0 1-.132.132h-3.44a.13.13 0 0 1-.132-.132V4.6c0-.112.048-.22.132-.295l2.514-2.262v-.588z"/><path d="M4.762.794a.132.132 0 0 0-.132.132v.53a.132.132 0 0 0 .132.132H6.35a.132.132 0 0 0 .132-.132v-.53A.132.132 0 0 0 6.35.794zm.133.265h1.323v.264H4.895z"/><g fill-rule="evenodd"><path d="M5.689.926v.53h.264v-.53zM5.16.926v.53h.264v-.53zM4.895 1.852v.265h1.323v-.265zM4.101 4.498v1.985h.265V4.498z"/><path d="m3.798 4.498-.187.187.622.623.623-.623-.187-.187-.436.436zM4.233 5.673l-.622.623.187.187.435-.436.436.436.187-.187zM3.241 5.358v.265h1.985v-.265z"/><path d="m3.429 4.868-.188.187.436.435-.436.436.188.187.622-.623zM5.038 4.868l-.622.622.622.623.188-.187-.436-.436.436-.435z"/></g></svg>