<svg xmlns="http://www.w3.org/2000/svg" xml:space="preserve" width="682.667" height="682.667"><defs><clipPath id="a" clipPathUnits="userSpaceOnUse"><path d="M0 512h512V0H0Z"/></clipPath></defs><path d="m0 0 70.312-72.052 33.128 33.945-167.177 171.314-33.129-33.944 69.219-70.932" style="fill:none;stroke:#000;stroke-width:15;stroke-linecap:round;stroke-linejoin:round;stroke-miterlimit:10;stroke-dasharray:none;stroke-opacity:1" transform="matrix(1.33333 0 0 -1.33333 316.516 416.836)"/><path d="m0 0 33.128 33.943-74.897 76.751-33.128-33.944" style="fill:none;stroke:#000;stroke-width:15;stroke-linecap:round;stroke-linejoin:round;stroke-miterlimit:10;stroke-dasharray:none;stroke-opacity:1" transform="matrix(1.33333 0 0 -1.33333 348.744 449.862)"/><path d="m0 0-27.223-27.893L78.308-136.034l27.222 27.892" style="fill:none;stroke:#000;stroke-width:15;stroke-linecap:round;stroke-linejoin:round;stroke-miterlimit:10;stroke-dasharray:none;stroke-opacity:1" transform="matrix(1.33333 0 0 -1.33333 228.46 326.6)"/><g clip-path="url(#a)" transform="matrix(1.33333 0 0 -1.33333 0 682.667)"><path d="M0 0c15.459-15.842 2.927-42.235-19.093-40.346l-59.988-61.465.777-7.794c.699-7.003-1.733-13.968-6.627-18.982l-32.527-33.328" style="fill:none;stroke:#000;stroke-width:15;stroke-linecap:round;stroke-linejoin:round;stroke-miterlimit:10;stroke-dasharray:none;stroke-opacity:1" transform="translate(441.424 396.215)"/><path d="m0 0 32.406 33.204c4.963 5.085 11.925 7.618 18.923 6.885l7.33-.769 59.988 61.466c-1.542 20.974 23.615 35.713 39.375 19.562" style="fill:none;stroke:#000;stroke-width:15;stroke-linecap:round;stroke-linejoin:round;stroke-miterlimit:10;stroke-dasharray:none;stroke-opacity:1" transform="translate(244.923 315.299)"/><path d="m0 0-88.175 90.357c-10.892 11.163-10.853 29.296.088 40.506l31.524 32.301L71.06 32.383 39.54.087C28.597-11.125 10.894-11.164 0 0Z" style="fill:none;stroke:#000;stroke-width:15;stroke-linecap:round;stroke-linejoin:round;stroke-miterlimit:10;stroke-dasharray:none;stroke-opacity:1" transform="translate(189.64 87.313)"/><path d="m0 0-63.601 65.175 81.596 83.604 63.601-65.174Z" style="fill:none;stroke:#000;stroke-width:15;stroke-linecap:round;stroke-linejoin:round;stroke-miterlimit:10;stroke-dasharray:none;stroke-opacity:1" transform="translate(95.674 15.115)"/><path d="m0 0 63.716-65.293" style="fill:none;stroke:#000;stroke-width:15;stroke-linecap:round;stroke-linejoin:round;stroke-miterlimit:10;stroke-dasharray:none;stroke-opacity:1" transform="translate(59.228 108.35)"/><path d="m0 0 63.716-65.293" style="fill:none;stroke:#000;stroke-width:15;stroke-linecap:round;stroke-linejoin:round;stroke-miterlimit:10;stroke-dasharray:none;stroke-opacity:1" transform="translate(86.4 136.191)"/><path d="M0 0v0l-17.448-17.878c-9.41-9.642-9.45-25.234-.089-34.827l15.517-15.9" style="fill:none;stroke:#000;stroke-width:15;stroke-linecap:round;stroke-linejoin:round;stroke-miterlimit:10;stroke-dasharray:none;stroke-opacity:1" transform="translate(32.032 80.333)"/><path d="m0 0-105.53 108.142 13.915 14.257c7.349 7.531 19.239 7.557 26.555.06l79.038-80.994c7.315-7.496 7.289-19.675-.059-27.204Z" style="fill:none;stroke:#000;stroke-width:15;stroke-linecap:round;stroke-linejoin:round;stroke-miterlimit:10;stroke-dasharray:none;stroke-opacity:1" transform="translate(309.987 192.836)"/><path d="m0 0-35.879 36.768 60.151 61.631c5.612 5.751 14.692 5.771 20.279.045L60.199 82.41c5.586-5.724 5.566-15.025-.045-20.775z" style="fill:none;stroke:#000;stroke-width:15;stroke-linecap:round;stroke-linejoin:round;stroke-miterlimit:10;stroke-dasharray:none;stroke-opacity:1" transform="translate(440.125 397.547)"/><path d="m0 0 82.626-84.672" style="fill:none;stroke:#000;stroke-width:15;stroke-linecap:round;stroke-linejoin:round;stroke-miterlimit:10;stroke-dasharray:none;stroke-opacity:1" transform="translate(337.11 413.427)"/><path d="m0 0 82.626-84.671" style="fill:none;stroke:#000;stroke-width:15;stroke-linecap:round;stroke-linejoin:round;stroke-miterlimit:10;stroke-dasharray:none;stroke-opacity:1" transform="translate(310.073 385.725)"/><path d="m0 0-12.065-12.362" style="fill:none;stroke:#000;stroke-width:15;stroke-linecap:round;stroke-linejoin:round;stroke-miterlimit:10;stroke-dasharray:none;stroke-opacity:1" transform="translate(63.664 47.478)"/><path d="m0 0-23.946-71.576h45.575l-82.716-101.013 26.837 75.637h-45.576z" style="fill:none;stroke:#000;stroke-width:15;stroke-linecap:round;stroke-linejoin:round;stroke-miterlimit:10;stroke-dasharray:none;stroke-opacity:1" transform="translate(458.243 258.038)"/><path d="m0 0-22.925-27.844H22.65L-4.187-103.48 78.53-2.468H32.955l23.946 71.576-31.742-38.551" style="fill:none;stroke:#000;stroke-width:15;stroke-linecap:round;stroke-linejoin:round;stroke-miterlimit:10;stroke-dasharray:none;stroke-opacity:1" transform="translate(55.053 357.442)"/></g></svg>