<svg xmlns="http://www.w3.org/2000/svg" xml:space="preserve" width="682.667" height="682.667"><defs><clipPath id="a" clipPathUnits="userSpaceOnUse"><path d="M0 512h512V0H0Z"/></clipPath><clipPath id="b" clipPathUnits="userSpaceOnUse"><path d="M0 512h512V0H0Z"/></clipPath></defs><path d="m0 0 85.231-22.837L12.434-294.52l-79.495-45.895-250.783 67.196 89.596 334.378 148.509-39.793" style="fill:none;stroke:#000;stroke-width:20;stroke-linecap:round;stroke-linejoin:round;stroke-miterlimit:2.613;stroke-dasharray:none;stroke-opacity:1" transform="matrix(1.33333 0 0 -1.33333 495.947 144.233)"/><path d="m0 0 16.064 59.95 60.354-16.172" style="fill:none;stroke:#000;stroke-width:20;stroke-linecap:round;stroke-linejoin:round;stroke-miterlimit:2.613;stroke-dasharray:none;stroke-opacity:1" transform="matrix(1.33333 0 0 -1.33333 407.513 594.46)"/><g clip-path="url(#a)" transform="matrix(1.33333 0 0 -1.33333 0 682.667)"><path d="M0 0v-346.078h-324.537v99.467" style="fill:none;stroke:#000;stroke-width:20;stroke-linecap:round;stroke-linejoin:round;stroke-miterlimit:2.613;stroke-dasharray:none;stroke-opacity:1" transform="translate(450.543 356.08)"/></g><path d="m0 0 15.664 15.664" style="fill:none;stroke:#000;stroke-width:20;stroke-linecap:round;stroke-linejoin:round;stroke-miterlimit:2.613;stroke-dasharray:none;stroke-opacity:1" transform="matrix(1.33333 0 0 -1.33333 385.67 174.417)"/><g clip-path="url(#b)" transform="matrix(1.33333 0 0 -1.33333 0 682.667)"><path d="M0 0c-.051-18.444-12.377-35.305-31.047-40.308-22.339-5.985-45.302 7.273-51.287 29.612-5.986 22.34 7.271 45.301 29.61 51.287a41.87 41.87 0 0 0 10.49 1.426" style="fill:none;stroke:#000;stroke-width:20;stroke-linecap:round;stroke-linejoin:round;stroke-miterlimit:2.613;stroke-dasharray:none;stroke-opacity:1" transform="translate(377.61 427.519)"/><path d="M0 0c19.824 5.312 40.201-6.453 45.513-26.277 5.312-19.825-6.453-40.202-26.277-45.513-19.824-5.313-40.201 6.452-45.513 26.276C-31.589-25.688-19.825-5.312 0 0Z" style="fill:none;stroke:#000;stroke-width:20;stroke-linecap:round;stroke-linejoin:round;stroke-miterlimit:2.613;stroke-dasharray:none;stroke-opacity:1" transform="translate(363.278 500.727)"/><path d="m0 0 197.563-52.938" style="fill:none;stroke:#000;stroke-width:20;stroke-linecap:round;stroke-linejoin:round;stroke-miterlimit:2.613;stroke-dasharray:none;stroke-opacity:1" transform="translate(170.472 333.02)"/><path d="m0 0 197.563-52.938" style="fill:none;stroke:#000;stroke-width:20;stroke-linecap:round;stroke-linejoin:round;stroke-miterlimit:2.613;stroke-dasharray:none;stroke-opacity:1" transform="translate(160.072 294.208)"/><path d="m0 0 55.304-14.818" style="fill:none;stroke:#000;stroke-width:20;stroke-linecap:round;stroke-linejoin:round;stroke-miterlimit:2.613;stroke-dasharray:none;stroke-opacity:1" transform="translate(149.673 255.397)"/><path d="M0 0h.007" style="fill:none;stroke:#000;stroke-width:20;stroke-linecap:round;stroke-linejoin:round;stroke-miterlimit:2.613;stroke-dasharray:none;stroke-opacity:1" transform="translate(248.447 228.928)"/></g></svg>