<svg xmlns="http://www.w3.org/2000/svg" xml:space="preserve" width="512" height="512" style="enable-background:new 0 0 512 512"><path d="M145.005 121V96l134.998-60v440l-134.998-60v-25M54.999 76h.008M54.999 166h.008M234.996 166h.007M10 121h.007M99.998 121h.008M189.997 121h.007M54.999 256h.008M234.996 256h.007M10 211h.007M99.998 211h.008M189.997 211h.007M54.999 346h.008M234.996 346h.007M10 301h.007M99.998 301h.008M189.997 301h.007M54.999 435.999h.008M10 391h.007M99.998 391h.008M189.997 391h.007" style="fill-rule:evenodd;clip-rule:evenodd;fill:none;stroke:#000;stroke-width:20.0001;stroke-linecap:round;stroke-linejoin:round;stroke-miterlimit:22.9256"/><path d="M342.002 263.5c19.328 0 20.671-15 39.999-15 19.328 0 20.671 15 39.999 15 19.328 0 20.671-15 39.999-15 19.328 0 20.671 15 39.999 15M320.002 166c19.328 0 20.671-15 39.999-15 19.328 0 20.671 15 39.999 15 19.328 0 20.671-15 39.999-15 19.328 0 20.671 15 39.999 15M320.002 361c19.328 0 20.671-15 39.999-15 19.328 0 20.671 15 39.999 15 19.328 0 20.671-15 39.999-15 19.328 0 20.671 15 39.999 15" style="fill-rule:evenodd;clip-rule:evenodd;fill:none;stroke:#000;stroke-width:19.9998;stroke-linecap:round;stroke-linejoin:round;stroke-miterlimit:22.9256"/><path d="M144.997 166h.008M144.997 256h.008M144.997 346h.008" style="fill-rule:evenodd;clip-rule:evenodd;fill:none;stroke:#000;stroke-width:20.0001;stroke-linecap:round;stroke-linejoin:round;stroke-miterlimit:22.9256"/></svg>