<svg xmlns="http://www.w3.org/2000/svg" xml:space="preserve" width="512" height="512" style="enable-background:new 0 0 512 512"><path d="M452 481h-15m-15 0H22.5c-8.249 0-15-6.75-15-15v-30.001h497V466c0 8.249-6.75 15-15 15H467M109.249 120.999H37.5c-16.5 0-30 13.5-30 30V181h497v-30.001c0-16.5-13.5-30-30-30H124.25M489.5 435.999v-255m-467 0v255M256 120.999l-30-30H67.5l-30 30M101.75 31h90v30.001h-90zM176.75 60.999V91m-60 0V60.999M452 150.998h15m-45 0h15M76.002 180.999v255m359.996-255v255m-45-255v255m-44.999-255v255m-45-255v255m-44.999-255v255m-45-255v255m-44.999-255v255m-44.999-255v255" style="fill-rule:evenodd;clip-rule:evenodd;fill:none;stroke:#000;stroke-width:15.0001;stroke-miterlimit:22.9256"/></svg>