<svg xmlns="http://www.w3.org/2000/svg" width="512" height="512" data-name="Layer 1" viewBox="0 0 1000 1000"><path d="M600.41 741.3a16 16 0 1 1 16-16 16 16 0 0 1-16 16zM900 314.51h-75.15a16 16 0 0 1 0-32H900a16 16 0 0 1 0 32zM900 443.22h-75.15a16 16 0 0 1 0-32H900a16 16 0 0 1 0 32zM900 571.93h-75.15a16 16 0 0 1 0-32H900a16 16 0 0 1 0 32zM862.42 378.86h-37.57a16 16 0 0 1 0-32h37.57a16 16 0 0 1 0 32zM862.42 507.57h-37.57a16 16 0 0 1 0-32h37.57a16 16 0 0 1 0 32z"/><path d="M715.36 831.2c-74.28 0-134.71-60.43-134.71-134.7 0-4 .18-7.92.51-11.75v-.26c.19-2.24.46-4.55.8-7.06a134.55 134.55 0 0 1 65.54-97.33V236.66A67.2 67.2 0 0 1 661 196.2l.12-.16a67.81 67.81 0 0 1 122.14 40.61v343.44a134.71 134.71 0 0 1 66.82 116.41c0 74.27-60.44 134.7-134.72 134.7zM613.09 687v.32c-.27 3-.41 6.06-.41 9.17a102.72 102.72 0 1 0 147.56-92.44 16 16 0 0 1-9-14.39v-353a35.81 35.81 0 0 0-64.61-21.32l-.08.11a35.43 35.43 0 0 0-7 21.22v353a16 16 0 0 1-8.89 14.33l-.45.23a102.6 102.6 0 0 0-56.51 77.65c-.27 1.81-.47 3.51-.61 5.12zm57.39-82.94h-.05zm.73-.39-.16.08z"/><path d="M715.37 770.89a68.73 68.73 0 1 1 68.72-68.73 68.81 68.81 0 0 1-68.72 68.73zm0-105.46a36.73 36.73 0 1 0 36.72 36.73 36.78 36.78 0 0 0-36.72-36.73z"/><path d="M715.36 665.42a16 16 0 0 1-16-16V298.51a16 16 0 0 1 32 0v350.91a16 16 0 0 1-16 16zM343.65 759.65a16 16 0 0 1-16-16V551.53a16 16 0 0 1 32 0v192.12a16 16 0 0 1-16 16zM343.65 464.47a16 16 0 0 1-16-16V256.35a16 16 0 1 1 32 0v192.12a16 16 0 0 1-16 16z"/><path d="M343.65 387.21a16 16 0 0 1-13.21-7L251.8 265.39a16 16 0 0 1 26.4-18.08l65.45 95.58 65.44-95.58a16 16 0 1 1 26.4 18.08l-78.64 114.86a16 16 0 0 1-13.2 6.96zM422.31 759.64a16 16 0 0 1-13.22-7l-65.44-95.57-65.45 95.61a16 16 0 1 1-26.4-18.08l78.64-114.85a16 16 0 0 1 26.41 0l78.64 114.85a16 16 0 0 1-13.18 25zM178.64 708.16A16 16 0 0 1 164 685.64l48-107.43-113.52-10.8a16 16 0 1 1 3-31.85l135.64 12.9a16 16 0 0 1 13.09 22.45l-57 127.76a16 16 0 0 1-14.57 9.49zM587.31 464.51c-.51 0-1 0-1.53-.07l-135.64-12.91A16 16 0 0 1 437 429.08l57-127.76a16 16 0 0 1 29.22 13l-47.88 107.46 113.47 10.8a16 16 0 0 1-1.5 31.93z"/><path d="M387.94 489.61a16 16 0 0 1-8.21-29.75l160-95.43a16 16 0 0 1 16.38 27.49l-160 95.43a15.94 15.94 0 0 1-8.17 2.26zM139.34 637.83a16 16 0 0 1-8.21-29.75l160-95.43a16 16 0 0 1 16.39 27.49l-160 95.43a15.94 15.94 0 0 1-8.18 2.26zM508.66 708.16a16 16 0 0 1-14.66-9.49l-57-127.76a16 16 0 0 1 13.1-22.45l135.64-12.9a16 16 0 0 1 3 31.85l-113.47 10.8 47.92 107.43a16 16 0 0 1-14.6 22.52zM100 464.51a16 16 0 0 1-1.5-31.93l113.5-10.8-48-107.42a16 16 0 0 1 29.23-13l57 127.76a16 16 0 0 1-13.09 22.45l-135.62 12.87c-.52.05-1.03.07-1.52.07z"/><path d="M299.35 489.61a16 16 0 0 1-8.18-2.26l-160-95.43a16 16 0 1 1 16.39-27.49l160 95.43a16 16 0 0 1-8.21 29.75zM548 637.83a15.9 15.9 0 0 1-8.17-2.26l-160-95.43a16 16 0 1 1 16.39-27.49l160 95.43a16 16 0 0 1-8.22 29.75z"/><path d="M343.65 567.53A67.53 67.53 0 1 1 411.18 500a67.61 67.61 0 0 1-67.53 67.53zm0-103.06A35.53 35.53 0 1 0 379.18 500a35.57 35.57 0 0 0-35.53-35.53z"/></svg>