<svg xmlns="http://www.w3.org/2000/svg" viewBox="0 0 60 60"><path d="M33 7a3 3 0 1 0-3 3 3 3 0 0 0 3-3Zm-4 0a1 1 0 1 1 1 1 1 1 0 0 1-1-1ZM22 48a8 8 0 1 0 8-8 8.009 8.009 0 0 0-8 8Zm14 0a6 6 0 1 1-6-6 6.006 6.006 0 0 1 6 6Z"/><path d="M23.388 37.995A12.1 12.1 0 0 0 21.081 40H17a3 3 0 0 0-3 3v10a3 3 0 0 0 3 3h4.081a11.944 11.944 0 0 0 17.838 0H43a3 3 0 0 0 3-3V43a3 3 0 0 0-3-3h-4.081a12.1 12.1 0 0 0-2.307-2.005A48.263 48.263 0 0 1 33 19v-5.685a7 7 0 1 0-6 0V19a48.263 48.263 0 0 1-3.612 18.995ZM17 54a1 1 0 0 1-1-1V43a1 1 0 0 1 1-1h2.623a11.9 11.9 0 0 0 0 12Zm26-12a1 1 0 0 1 1 1v10a1 1 0 0 1-1 1h-2.623a11.9 11.9 0 0 0 0-12Zm-3 6a10 10 0 1 1-10-10 10.011 10.011 0 0 1 10 10ZM25 7a5 5 0 1 1 5 5 5.006 5.006 0 0 1-5-5Zm5 7a7.026 7.026 0 0 0 1-.08V19a51.98 51.98 0 0 0 2.941 17.678 11.793 11.793 0 0 0-7.882 0A51.98 51.98 0 0 0 29 19v-5.08a7.026 7.026 0 0 0 1 .08Z"/></svg>