<svg xmlns="http://www.w3.org/2000/svg" viewBox="0 0 512 512"><path d="m82.36 66.15 18.71-26.62a6.987 6.987 0 0 1 5.73-2.98h113.1c2.52 0 4.73 1.33 5.95 3.34l18.45 26.25h20.83c3.88 0 7 3.15 7 7v37.08c0 3.85-3.12 7-7 7h-5.73v93h33.05v-16.98c0-3.88 3.15-7 7-7h18.71v-57.15c0-27.41 22.42-49.8 49.83-49.8h47.45c27.41 0 49.8 22.39 49.8 49.8v64.94h8.14c12.22 0 22.17 9.95 22.17 22.14v45.18c0 12.19-9.95 22.14-22.17 22.14h-8.14v64.94c0 27.41-22.39 49.8-49.8 49.8h-47.45c-27.41 0-49.83-22.39-49.83-49.8v-57.15h-18.71c-3.85 0-7-3.12-7-7V267.3H259.4v200.75c0 3.85-3.12 7-7 7H74.25c-3.88 0-7-3.15-7-7V326.26H38.57c-3.88 0-7-3.12-7-7V197.11c0-3.88 3.12-7 7-7h28.69v-72.88h-5.73c-3.85 0-7-3.15-7-7V73.15c0-3.86 3.15-7 7-7zm271.93 72.68a7.05 7.05 0 0 1 0-9.92 7.05 7.05 0 0 1 9.92 0l9.3 9.3a7.05 7.05 0 0 1 0 9.92c-2.75 2.72-7.17 2.72-9.89 0zm64.97-9.92c2.72-2.72 7.17-2.72 9.89 0a7.05 7.05 0 0 1 0 9.92l-9.3 9.3c-2.75 2.72-7.17 2.72-9.89 0a6.995 6.995 0 0 1 0-9.92zm0 189.75c2.72-2.72 7.17-2.72 9.89 0a7.05 7.05 0 0 1 0 9.92l-9.3 9.3c-2.75 2.72-7.17 2.72-9.89 0a6.995 6.995 0 0 1 0-9.92zm0-37.92a6.96 6.96 0 0 1 9.89 0c2.72 2.72 2.72 7.14 0 9.89l-9.3 9.3c-2.75 2.72-7.17 2.72-9.89 0-2.75-2.75-2.75-7.17 0-9.89zm0-37.96a6.96 6.96 0 0 1 9.89 0c2.72 2.72 2.72 7.17 0 9.89l-9.3 9.3c-2.75 2.72-7.17 2.72-9.89 0a6.96 6.96 0 0 1 0-9.89zm0-37.96c2.72-2.72 7.17-2.72 9.89 0s2.72 7.17 0 9.89l-9.3 9.3c-2.75 2.75-7.17 2.75-9.89 0a6.96 6.96 0 0 1 0-9.89zm0-37.95c2.72-2.72 7.17-2.72 9.89 0 2.72 2.75 2.72 7.17 0 9.89l-9.3 9.3c-2.75 2.75-7.17 2.75-9.89 0-2.75-2.72-2.75-7.14 0-9.89zm-64.97 161.71a7.05 7.05 0 0 1 0-9.92 7.05 7.05 0 0 1 9.92 0l9.3 9.3a7.05 7.05 0 0 1 0 9.92c-2.75 2.72-7.17 2.72-9.89 0zm0-37.95c-2.72-2.75-2.72-7.17 0-9.89a6.995 6.995 0 0 1 9.92 0l9.3 9.3c2.72 2.72 2.72 7.14 0 9.89-2.75 2.72-7.17 2.72-9.89 0zm0-37.96c-2.72-2.72-2.72-7.17 0-9.89a6.995 6.995 0 0 1 9.92 0l9.3 9.3c2.72 2.72 2.72 7.17 0 9.89-2.75 2.72-7.17 2.72-9.89 0zm0-37.95c-2.72-2.72-2.72-7.17 0-9.89a7.05 7.05 0 0 1 9.92 0l9.3 9.3c2.72 2.72 2.72 7.17 0 9.89-2.75 2.75-7.17 2.75-9.89 0zm0-37.96c-2.72-2.72-2.72-7.14 0-9.89a7.05 7.05 0 0 1 9.92 0l9.3 9.3c2.72 2.75 2.72 7.17 0 9.89-2.75 2.75-7.17 2.75-9.89 0zm44.45-83.45v290.98h16.72c19.67 0 35.8-16.16 35.8-35.83V129.11c0-19.67-16.13-35.8-35.8-35.8zm-14.01 290.97V93.31h-16.72c-19.7 0-35.83 16.13-35.83 35.8v219.34c0 19.67 16.13 35.83 35.83 35.83zm-272.8-107.71h102.81c3.86 0 7 3.15 7 7v46.2c0 3.86-3.15 7-7 7H111.93c-3.85 0-6.97-3.15-6.97-7v-46.2c-.01-3.86 3.11-7 6.97-7zm95.81 14h-88.81v32.2h88.81zm-95.81-128.29h102.81c3.86 0 7 3.12 7 7v46.2c0 3.86-3.15 7-7 7H111.93c-3.85 0-6.97-3.15-6.97-7v-46.2c-.01-3.89 3.11-7 6.97-7zm95.81 14h-88.81v32.2h88.81zm257.53 31.77v61.46h8.14c4.48 0 8.16-3.66 8.16-8.14v-45.18c0-4.48-3.69-8.14-8.16-8.14zm-147.09-7.79h-11.71v16.98c0 3.85-3.15 7-7 7h-40.05v29.08h40.05c3.86 0 7 3.15 7 7v16.98h11.71zM67.25 312.28V204.11H45.57v108.17zM227.24 66.15l-10.97-15.59H110.4L99.45 66.15zM68.53 103.23h189.61V80.16H68.53zm176.91 14H81.26v343.84h164.18z"/></svg>