<svg xmlns="http://www.w3.org/2000/svg" viewBox="0 0 512 512"><path d="M486 339.732h-9.273v-16.153a7 7 0 0 0-7-7h-26.273a7 7 0 0 0-7 7v16.153h-85.322v-16.153a7 7 0 0 0-7-7h-26.273a7 7 0 0 0-7 7v16.153h-9.273c-9.374 0-17 7.626-17 17V486c0 9.374 7.626 17 17 17H486c9.374 0 17-7.626 17-17V356.732c0-9.374-7.626-17-17-17zm-35.546-9.153h12.273v9.153h-12.273zm-125.595 0h12.273v9.153h-12.273zm-23.274 23.153H486c1.654 0 3 1.346 3 3v6.154H298.586v-6.154c0-1.654 1.346-3 2.999-3zM486 489H301.585c-1.654 0-3-1.346-3-3V376.887H489V486c0 1.654-1.346 3-3 3zm-134.869-84.598a7 7 0 0 1-7 7H317.86a7 7 0 1 1 0-14h26.271a7 7 0 0 1 7 7zm125.596 0a7 7 0 0 1-7 7h-6.136v6.136a7 7 0 1 1-14 0v-6.136h-6.136a7 7 0 1 1 0-14h6.136v-6.136a7 7 0 1 1 14 0v6.136h6.136a7 7 0 0 1 7 7zM46.996 292.562h155.093a7 7 0 0 0 7-7v-53.725a7 7 0 0 0-7-7H46.996a7 7 0 0 0-7 7v53.725a7 7 0 0 0 7 7zm7-53.725h141.093v39.725H53.996zm70.546 107.068c-23.301 0-42.258 18.957-42.258 42.258 0 23.302 18.957 42.26 42.258 42.26s42.258-18.958 42.258-42.26c.001-23.301-18.956-42.258-42.258-42.258zm0 70.518c-15.582 0-28.258-12.677-28.258-28.26 0-5.257 1.448-10.18 3.958-14.401l19.35 19.351a6.978 6.978 0 0 0 4.95 2.051 7 7 0 0 0 4.95-11.949l-19.351-19.351a28.076 28.076 0 0 1 14.401-3.958c15.582 0 28.258 12.677 28.258 28.258.001 15.582-12.676 28.259-28.258 28.259zm53.398 15.24a7 7 0 1 1-9.9 9.898l-7.241-7.241a7 7 0 0 1 9.899-9.898zm22.119-43.499a7 7 0 0 1-7 7h-10.241a7 7 0 1 1 0-14h10.241a7 7 0 0 1 7 7zm-34.309-34.208a7 7 0 0 1-4.95-11.949l7.241-7.241a7 7 0 0 1 9.899 9.898l-7.241 7.241a6.976 6.976 0 0 1-4.949 2.051zm-87.365-2.051-7.241-7.241a7 7 0 0 1 9.899-9.898l7.241 7.241a7 7 0 0 1-9.899 9.898zm9.9 72.517a7 7 0 0 1 0 9.898l-7.241 7.241c-1.367 1.367-3.158 2.051-4.95 2.051s-3.583-.684-4.95-2.051a7 7 0 0 1 0-9.898l7.241-7.241a7 7 0 0 1 9.9 0zm-22.018-29.258H56.026a7 7 0 1 1 0-14h10.241a7 7 0 1 1 0 14zm65.275 51.275v10.24a7 7 0 1 1-14 0v-10.24a7 7 0 1 1 14 0zm-7-109.551a7 7 0 0 1-7-7v-10.24a7 7 0 1 1 14 0v10.24a7 7 0 0 1-7 7zM496 94.003h-77.362v-8.278a7 7 0 0 0-7-7h-78.47a7 7 0 0 0-7 7v8.278H193.479a7 7 0 0 0-7 7v67.882h-7.674a7 7 0 0 0-7 7v14.773H76.694v-14.773a7 7 0 0 0-7-7H62.02V38.278h264.148v8.278a7 7 0 0 0 7 7h78.47a7 7 0 0 0 7-7v-8.278H496a7 7 0 1 0 0-14h-77.362V16a7 7 0 0 0-7-7h-78.47a7 7 0 0 0-7 7v8.278H55.02a7 7 0 0 0-7 7v137.606h-7.674a7 7 0 0 0-7 7v14.773H16a7 7 0 0 0-7 7V496a7 7 0 0 0 7 7h217.083a7 7 0 0 0 7-7V197.658a7 7 0 0 0-7-7h-17.929v-14.773a7 7 0 0 0-7-7h-7.675v-60.882h125.688v8.278a7 7 0 0 0 7 7h78.47a7 7 0 0 0 7-7v-8.278H496a7 7 0 1 0 0-14zM340.168 23h64.47v16.557h-64.47zM47.345 182.885h15.349v7.773H47.345zM226.083 489H23V204.658h203.083zm-24.929-298.342h-15.349v-7.773h15.349zm203.484-81.377h-64.47V92.725h64.47z"/></svg>