<svg xmlns="http://www.w3.org/2000/svg" xml:space="preserve" width="512" height="512" style="enable-background:new 0 0 512 512"><path d="M195.283 366.244h41.988v47.495h-41.988zM195.283 389.992h41.989M216.277 452.142v13.956M258.837 444.62l2.168-19.461c.679-6.091-4.089-11.419-10.217-11.419h-69.021c-6.129 0-10.896 5.328-10.217 11.419l7.822 70.199a10.28 10.28 0 0 0 10.217 9.142h53.376a10.28 10.28 0 0 0 10.217-9.142l2.422-21.738M180.382 226.463v139.781h71.791V150.095h-71.791v47.368M158.403 123.188h115.75v26.907h-115.75zM266.479 7.5v115.688M166.076 123.188V7.5M216.277 54.555v21.578" style="fill:none;stroke:#000;stroke-width:15;stroke-linecap:round;stroke-linejoin:round;stroke-miterlimit:10"/><path d="M191.348 7.5h-50.912a7.345 7.345 0 0 0-7.345 7.345v100.999a7.345 7.345 0 0 0 7.345 7.345h231.128a7.345 7.345 0 0 0 7.345-7.345V72.689a7.345 7.345 0 0 0-7.345-7.345h-53.438a7.345 7.345 0 0 1-6.73-4.404l-21.425-49.036a7.345 7.345 0 0 0-6.73-4.404h-62.892" style="fill:none;stroke:#000;stroke-width:15;stroke-linecap:round;stroke-linejoin:round;stroke-miterlimit:10"/></svg>