<svg xmlns="http://www.w3.org/2000/svg" width="512" height="512" viewBox="0 0 96 96"><path d="M23.77 63.56c0-1.45-.86-2.11-1.6-2.84l9.37-9.36a6.68 6.68 0 0 1 5.61-1.82A11.17 11.17 0 0 0 49.59 37.1a6.74 6.74 0 0 1 1.82-5.62l9.37-9.36.7.71a3 3 0 0 0 4.25 0c4.72-4.71 4.52-4.52 9.23-9.23a3 3 0 0 0 0-4.25l-.7-.71 2-2a4.21 4.21 0 0 0-6-5.95l-2 2-.67-.69a3 3 0 0 0-4.26 0c-4.83 4.81-2.75 2.74-9.23 9.2a3 3 0 0 0 0 4.26l.72.71-9.32 9.32a6.75 6.75 0 0 1-5.67 1.86 11.16 11.16 0 0 0-12.44 12.44 6.71 6.71 0 0 1-1.81 5.62l-9.36 9.36-.7-.71a3 3 0 0 0-4.26 0L2 63.28a3 3 0 0 0 0 4.26l.71.71-2 2a4.15 4.15 0 0 0-1.24 3 4.22 4.22 0 0 0 7.19 3l2-2 .71.71a3 3 0 0 0 4.25 0c4.81-4.79 2.75-2.74 9.23-9.22a3 3 0 0 0 .92-2.18zm48-61.49a2.22 2.22 0 0 1 3.12 0 2.19 2.19 0 0 1 0 3.12l-2 2-3.18-3.09zm-7 1.32a1 1 0 0 1 1.41 0c1 1 0 0 5.25 5.24l1.42 1.42.72.71a1 1 0 0 1 0 1.43L71.71 14c-.26-.59.07-.19-5.84-6.09-2.29-2.3-2.36-2.43-3-2.7zM55.53 14a1 1 0 0 1-.26-1c0-.31.23-.43 5.79-6a1 1 0 0 1 1.27.13l2.12 2.13 3.12 3.12L69 13.9l.71.71a1 1 0 0 1 0 1.42l-5.38 5.39a1 1 0 0 1-1.43 0c-8.1-8.1-6.47-6.42-7.37-7.42zm.7 3.54 3.12 3.12-8.65 8.7-3.12-3.12zm-26.85 22a9.17 9.17 0 0 1 10.21-10.21 8.94 8.94 0 0 0 6.53-1.72l3.17 3.17c-2.45 3.13-1.66 6.47-1.66 7.66a9.17 9.17 0 0 1-10.28 9.08 8.76 8.76 0 0 0-6.52 1.72l-3.21-3.21a8.83 8.83 0 0 0 1.76-6.48zm-3.08 8 3.11 3.12-8.65 8.64-3.13-3.12zM5.24 74.82a2.29 2.29 0 0 1-3.12 0 2.22 2.22 0 0 1 0-3.13l2-2 3.13 3.13zm7-1.32a1 1 0 0 1-1.43 0c-.1-.1-6.55-6.56-7.38-7.37a1 1 0 0 1 0-1.43l1.86-1.84c.26.59 0 .22 5.82 6.08 2 2 2.34 2.43 3 2.72zm9.23-9.23-5.39 5.39a1 1 0 0 1-1.43 0C7 62 8.31 63.32 7.29 62.28a1 1 0 0 1 0-1.43l5.37-5.38a1 1 0 0 1 1-.26c.35 0 .41.24 7.14 6.92.66.66 1 .88 1 1.43a1 1 0 0 1-.33.71z"/><path d="M35 42a5 5 0 1 0 0-7 5 5 0 0 0 0 7zm3.51-6.49a3 3 0 0 1 3 3 3 3 0 1 1-5.92-.16 3 3 0 0 1 2.9-2.88zM16.55 63.32l-3-3a1 1 0 0 0-1.31.1 1 1 0 0 0-.1 1.3l3 3a1.05 1.05 0 0 0 .7.29 1 1 0 0 0 .71-1.69zM63.47 16.58a1 1 0 0 0 1.32-.09 1 1 0 0 0 0-1.41l-3-3a1 1 0 0 0-1.41 1.4c.02.06 3.03 3.06 3.09 3.1zM96.53 22.64a4.22 4.22 0 0 0-7.19-3l-2 2-.74-.64a3 3 0 0 0-4.26 0c-4.83 4.84-2.75 2.77-9.23 9.23a3 3 0 0 0 0 4.26l.72.71-9.36 9.36a6.72 6.72 0 0 1-5.62 1.82A11.15 11.15 0 0 0 46.41 58.8a6.72 6.72 0 0 1-1.82 5.62l-9.36 9.36-.7-.71a3 3 0 0 0-4.26 0c-1.79 1.78-7.63 7.62-9.23 9.23a3 3 0 0 0 0 4.25l.72.72-2 2a4.21 4.21 0 0 0 6 5.95l2-2 .71.71a3 3 0 0 0 4.25 0l9.23-9.23a3 3 0 0 0 0-4.26l-.71-.71 9.37-9.36a6.7 6.7 0 0 1 5.61-1.82A11.15 11.15 0 0 0 68.6 56.11a6.78 6.78 0 0 1 1.82-5.62l9.37-9.36.7.71a3 3 0 0 0 4.27 0L94 32.62a3 3 0 0 0 0-4.26l-.7-.71 2-2a4.21 4.21 0 0 0 1.23-3.01zM24.26 93.83a2.21 2.21 0 1 1-3.13-3.13l2-2 3.13 3.12zm7-1.32a1 1 0 0 1-1.44 0l-7.37-7.37a1 1 0 0 1 0-1.43l1.85-1.84c.28.61.11.36 5.83 6.09 1.24 1.23 2.61 2.71 3 2.71zm9.22-10.65a1 1 0 0 1 0 1.42l-5.39 5.39a1 1 0 0 1-1.42 0l-7.37-7.38a1 1 0 0 1 0-1.4l5.4-5.41a1 1 0 0 1 .72-.29c.58 0-.04-.44 8.06 7.67zm-.7-3.54-3.14-3.13 8.67-8.65 3.11 3.12zm26.84-22A9.18 9.18 0 0 1 56.4 66.57a8.76 8.76 0 0 0-6.52 1.72c0-.05-3.12-3.13-3.21-3.21a8.83 8.83 0 0 0 1.72-6.52 9.18 9.18 0 0 1 10.22-10.22 8.87 8.87 0 0 0 6.52-1.72c.07.06 3.15 3.15 3.21 3.21a8.83 8.83 0 0 0-1.72 6.52zm3.09-8-3.12-3.12 8.65-8.66 3.13 3.13zm13.62-7.94a1 1 0 0 1-1.43 0l-7.36-7.37a1 1 0 0 1 0-1.43L80 26.2a1 1 0 0 1 1.37 0l2.12 2.13 3.13 3.13c.5.49.11.1 2.12 2.12a1 1 0 0 1 .03 1.42c-.06.1-2.59 2.59-5.44 5.43zm9.23-10.66a1 1 0 0 1 0 1.43L90.72 33a3.2 3.2 0 0 0-.59-.84c-8-8-7.59-7.68-8.21-8 2-2 2-2.14 2.55-2.14s.06-.29 8.09 7.75zm1.32-5.56-2 2-3.13-3.13 2-2a2.18 2.18 0 0 1 1.55-.64 2.21 2.21 0 0 1 1.58 3.82z"/><path d="M61 53.94a5 5 0 1 0 1.31 4.63A5 5 0 0 0 61 53.94zm-3.34 6.45a2.92 2.92 0 0 1-3.14-3.1 3 3 0 0 1 5.92.17 2.89 2.89 0 0 1-2.75 2.93zM32.52 79.32a1 1 0 0 0-1.39 1.38c.05.1-.06 0 3 3a1 1 0 0 0 1.5-1.3c-.02-.03-3-3.03-3.11-3.08zM80.76 31.08a1 1 0 0 0-1.39 1.38c.06.1-.08-.06 3 3a1.1 1.1 0 0 0 .71.3 1 1 0 0 0 .81-1.6c-.05-.04-3.03-3.03-3.13-3.08z"/></svg>