<svg xmlns="http://www.w3.org/2000/svg" width="512" height="512" viewBox="0 0 60 60"><g fill="#000" fill-rule="nonzero"><path d="M57.44 53.51a18.93 18.93 0 0 0 0-18.89.54.54 0 0 1 0-.1l-.09-.09a19 19 0 0 0-6.78-6.78.34.34 0 0 0-.09-.08h-.09a18.74 18.74 0 0 0-13.54-2A18.95 18.95 0 0 0 35.49 9.6a.54.54 0 0 1 0-.1l-.09-.09a19 19 0 0 0-6.78-6.78.34.34 0 0 0-.09-.08h-.09a18.89 18.89 0 0 0-18.82 0h-.09a.34.34 0 0 0-.09.08 19 19 0 0 0-6.81 6.78l-.09.09a.54.54 0 0 1 0 .1 18.86 18.86 0 0 0 0 18.8.54.54 0 0 1 0 .1 1 1 0 0 0 .13.16 19 19 0 0 0 6.74 6.71.34.34 0 0 0 .09.08.75.75 0 0 0 .13.06A18.84 18.84 0 0 0 19 38a19.44 19.44 0 0 0 4.16-.47A18.74 18.74 0 0 0 22 44a19 19 0 0 0 2.54 9.49A18.76 18.76 0 0 0 28.17 58H25a1 1 0 0 0 0 2h32a1 1 0 0 0 0-2h-3.17a18.76 18.76 0 0 0 3.61-4.49zM20 36v-1a1 1 0 0 0-2 0v1a16.89 16.89 0 0 1-6.61-1.77l.48-.82a1.003 1.003 0 0 0-1.74-1l-.48.83a17.16 17.16 0 0 1-4.84-4.84l.83-.48a1.003 1.003 0 0 0-1-1.74l-.82.48A16.89 16.89 0 0 1 2.05 20H3a1 1 0 0 0 0-2H2a16.89 16.89 0 0 1 1.77-6.61l.82.48a1.003 1.003 0 0 0 1-1.74l-.83-.48a17.16 17.16 0 0 1 4.89-4.84l.48.83a1.003 1.003 0 0 0 1.74-1l-.48-.82A16.89 16.89 0 0 1 18 2.05V3a1 1 0 0 0 2 0V2a16.89 16.89 0 0 1 6.61 1.77l-.48.82a1.003 1.003 0 0 0 1.74 1l.48-.83a17.16 17.16 0 0 1 4.84 4.84l-.83.48a1.003 1.003 0 0 0 1 1.74l.82-.48A16.89 16.89 0 0 1 36 18h-1a1 1 0 0 0 0 2h.94a16.5 16.5 0 0 1-1.57 6.22 20 20 0 0 0-2.78 1.29h-.09a.34.34 0 0 0-.09.08 19 19 0 0 0-6.78 6.78l-.09.09a.54.54 0 0 1 0 .1c-.11.19-.22.38-.32.58A16.74 16.74 0 0 1 20 36zm11.38 22a17 17 0 0 1-4.58-4.65l.84-.48a1.003 1.003 0 0 0-1-1.74l-.84.49A17 17 0 0 1 24 45h1a1 1 0 0 0 0-2h-.95a16.89 16.89 0 0 1 1.77-6.61l.82.48a1.003 1.003 0 0 0 1-1.74l-.83-.48a17.16 17.16 0 0 1 4.84-4.84l.48.83a1.003 1.003 0 0 0 1.74-1l-.48-.82A16.89 16.89 0 0 1 40 27.05V28a1 1 0 0 0 2 0v-.95a16.89 16.89 0 0 1 6.61 1.77l-.48.82a1.003 1.003 0 0 0 1.74 1l.48-.83a17.16 17.16 0 0 1 4.84 4.84l-.83.48a1.003 1.003 0 0 0 1 1.74l.82-.48A16.89 16.89 0 0 1 58 43h-1a1 1 0 0 0 0 2h1a17 17 0 0 1-1.77 6.62l-.84-.49a1.003 1.003 0 1 0-1 1.74l.84.48A17 17 0 0 1 50.62 58z"/><path d="M41 32c-6.627 0-12 5.373-12 12s5.373 12 12 12 12-5.373 12-12-5.373-12-12-12zm9.15 8-5.79 1.88A4 4 0 0 0 42 40.14v-6.09A10 10 0 0 1 50.15 40zM39 44a2 2 0 1 1 4 0 2 2 0 0 1-4 0zm1-10v6.09a4 4 0 0 0-2.36 1.72L31.85 40A10 10 0 0 1 40 34.05zm-9 10c0-.713.077-1.424.23-2.12L37 43.76V44a4 4 0 0 0 .93 2.53l-3.58 4.92A10 10 0 0 1 31 44zm5 8.63 3.57-4.92a3.82 3.82 0 0 0 2.92 0L46 52.63a9.92 9.92 0 0 1-10.06 0zm11.68-1.18-3.58-4.92A4 4 0 0 0 45 44v-.24l5.79-1.88A9.84 9.84 0 0 1 51 44a10 10 0 0 1-3.35 7.45zM31 19c0-6.627-5.373-12-12-12S7 12.373 7 19s5.373 12 12 12a12 12 0 0 0 12-12zm-5.35 7.45-3.58-4.92A4 4 0 0 0 23 19v-.24l5.79-1.88A9.84 9.84 0 0 1 29 19a10 10 0 0 1-3.35 7.45zM17 19a2 2 0 1 1 4 0 2 2 0 0 1-4 0zm11.15-4-5.79 1.88A4 4 0 0 0 20 15.14V9.05A10 10 0 0 1 28.15 15zM18 9.05v6.09a4 4 0 0 0-2.36 1.72L9.85 15A10 10 0 0 1 18 9.05zM9 19c0-.713.077-1.424.23-2.12L15 18.76V19a4 4 0 0 0 .93 2.53l-3.58 4.92A10 10 0 0 1 9 19zm5 8.63 3.57-4.92a3.82 3.82 0 0 0 2.92 0L24 27.63a9.92 9.92 0 0 1-10.06 0zM45 8h-2a1 1 0 0 0 0 2h2a7 7 0 0 1 7 7v1.59l-1.29-1.3a1.004 1.004 0 1 0-1.42 1.42l3 3a1 1 0 0 0 1.42 0l3-3a1.004 1.004 0 0 0-1.42-1.42L54 18.59V17a9 9 0 0 0-9-9zM17 50h-2a7 7 0 0 1-7-7v-1.59l1.29 1.3a1 1 0 0 0 1.42 0 1 1 0 0 0 0-1.42l-3-3a1 1 0 0 0-1.42 0l-3 3a1.004 1.004 0 0 0 1.42 1.42L6 41.41V43a9 9 0 0 0 9 9h2a1 1 0 0 0 0-2z"/></g></svg>